<?xml version="1.0" encoding="UTF-8" standalone="no"?>
<!-- Created with Inkscape (http://www.inkscape.org/) -->

<svg
   width="250mm"
   height="80mm"
   viewBox="0 0 250 80"
   version="1.1"
   id="svg1"
   xml:space="preserve"
   inkscape:version="1.4.2 (ebf0e940, 2025-05-08)"
   sodipodi:docname="logo.svg"
   xmlns:inkscape="http://www.inkscape.org/namespaces/inkscape"
   xmlns:sodipodi="http://sodipodi.sourceforge.net/DTD/sodipodi-0.dtd"
   xmlns="http://www.w3.org/2000/svg"
   xmlns:svg="http://www.w3.org/2000/svg"><sodipodi:namedview
     id="namedview1"
     pagecolor="#505050"
     bordercolor="#ffffff"
     borderopacity="1"
     inkscape:showpageshadow="0"
     inkscape:pageopacity="0"
     inkscape:pagecheckerboard="1"
     inkscape:deskcolor="#505050"
     inkscape:document-units="mm"
     inkscape:zoom="0.72456463"
     inkscape:cx="630.72358"
     inkscape:cy="464.41682"
     inkscape:window-width="1680"
     inkscape:window-height="928"
     inkscape:window-x="0"
     inkscape:window-y="25"
     inkscape:window-maximized="1"
     inkscape:current-layer="layer1" /><defs
     id="defs1" /><g
     inkscape:label="Layer 1"
     inkscape:groupmode="layer"
     id="layer1"><g
       id="g248"
       transform="matrix(0.12835897,0,0,0.12835897,261.99368,18.115987)"><path
         style="fill:#000000"
         d="m -1837.0926,396.66651 c -1.8073,-4.7096 3.4438,-9.9607 8.1534,-8.1535 2.0065,0.77 3.6453,3.7365 3.6453,6.5988 0,4.0359 -1.164,5.1999 -5.2,5.1999 -2.8622,0 -5.8288,-1.6388 -6.5987,-3.6452 z m -34.377,-5.2207 c -4.3652,-2.5425 -5.0377,-10.7596 -1.1952,-14.6022 6.0952,-6.0952 16.9492,-1.5031 16.9492,7.1708 0,8.592 -7.6035,12.1786 -15.754,7.4314 z m 118.5373,-2.1732 c -22.8948,-11.3328 -22.6096,-44.1566 0.479,-55.1128 15.2817,-7.2517 32.9039,-1.1219 40.6938,14.155 7.9586,15.6077 2.308,32.4031 -13.6556,40.5888 -11.7815,6.0413 -15.9452,6.0971 -27.5172,0.369 z m -169.7667,-24.4118 c -10.1101,-10.7617 -2.8916,-29.7383 11.3123,-29.7383 8.4967,0 13.376,3.1838 16.5232,10.7818 7.2469,17.4956 -14.9846,32.6357 -27.8355,18.9565 z m 93.5837,2.1496 c -7.5515,-4.1938 -11.6505,-11.5113 -11.7819,-21.0326 -0.3132,-22.6912 26.4819,-34.1516 42.4692,-18.1644 10.6559,10.6561 9.4999,28.3936 -2.4639,37.8044 -6.2488,4.9153 -20.6049,5.6237 -28.2234,1.3926 z m 152.6701,0.3575 c -8.247,-4.5352 -11.853,-11.2277 -11.9031,-22.0909 -0.04,-8.6886 1.0228,-11.5599 6.1922,-16.7293 7.9112,-7.9112 15.7874,-9.8857 26.5598,-6.6582 11.0218,3.3022 16.0917,11.0918 16.0917,24.7238 0,9.2213 -0.9204,11.4177 -7.0965,16.9361 -5.5162,4.9287 -9.1454,6.326 -16.2973,6.2746 -5.0605,-0.036 -11.1566,-1.1416 -13.5468,-2.4561 z m -287.9191,-48.0487 c -7.5839,-3.7712 -13.8347,-17.2949 -12.1484,-26.2836 0.7357,-3.9217 4.3232,-9.9906 7.9722,-13.4866 5.4716,-5.2421 8.4833,-6.3563 17.1817,-6.3563 12.2594,0 20.1045,5.7771 24.0405,17.7033 6.8166,20.6546 -16.5759,38.6022 -37.046,28.4232 z m 83.3048,-0.4433 c -9.6877,-6.7856 -8.028,-24.181 2.7768,-29.104 7.801,-3.5544 12.5406,-3.0437 19.0146,2.0488 11.9987,9.4382 4.5864,30.2639 -10.7716,30.2639 -3.5412,0 -8.5001,-1.4439 -11.0198,-3.2087 z m 261.6248,0.4925 c -9.3283,-7.0836 -8.857,-21.7248 0.9197,-28.5726 13.7273,-9.615 31.0353,4.2693 25.4161,20.3885 -1.2743,3.6554 -4.1054,7.6033 -6.2914,8.7732 -5.527,2.958 -15.7698,2.6569 -20.0444,-0.5891 z m -122.5651,-9.4036 c -0.7235,-1.8854 0.285,-5.0284 2.2411,-6.9846 3.2935,-3.2935 3.8198,-3.2935 7.1133,0 4.4426,4.4426 2.4034,10.4125 -3.5566,10.4125 -2.4653,0 -5.0743,-1.5425 -5.7978,-3.4279 z m 32.308,-5.6986 c -1.4341,-1.4341 -2.6075,-4.661 -2.6075,-7.1708 0,-2.5098 1.1734,-5.7366 2.6075,-7.1708 1.4342,-1.4342 4.6611,-2.6076 7.1709,-2.6076 2.5097,0 5.7366,1.1734 7.1708,2.6076 1.4341,1.4342 2.6075,4.661 2.6075,7.1708 0,2.5098 -1.1734,5.7367 -2.6075,7.1708 -1.4342,1.4342 -4.6611,2.6076 -7.1708,2.6076 -2.5098,0 -5.7367,-1.1734 -7.1709,-2.6076 z m 42.2315,-23.6258 c -4.4163,-3.4738 -5.7255,-6.4191 -5.7255,-12.8801 0,-18.6435 25.4462,-23.7769 32.573,-6.5711 7.1636,17.2944 -11.968,31.1554 -26.8475,19.4512 z m -240.3809,-15.005 c -5.938,-11.0951 7.7273,-20.6625 15.6095,-10.9284 3.538,4.3692 3.6637,5.5516 1.0166,9.5627 -4.2313,6.4119 -13.5172,7.1747 -16.6261,1.3657 z m 322.009,1.6903 c -1.4341,-1.4342 -2.6075,-4.661 -2.6075,-7.1708 0,-2.5098 1.1734,-5.7366 2.6075,-7.1708 1.4342,-1.4342 4.6611,-2.6076 7.1708,-2.6076 2.5098,0 5.7367,1.1734 7.1709,2.6076 1.4341,1.4342 2.6075,4.661 2.6075,7.1708 0,2.5098 -1.1734,5.7366 -2.6075,7.1708 -1.4342,1.4341 -4.6611,2.6075 -7.1709,2.6075 -2.5097,0 -5.7366,-1.1734 -7.1708,-2.6075 z m 497.1766,-24.5546 c 0,-15.2108 0.8503,-24.9892 2.173,-24.9892 1.3227,0 2.173,9.7784 2.173,24.9892 0,15.2108 -0.8503,24.9892 -2.173,24.9892 -1.3227,0 -2.173,-9.7784 -2.173,-24.9892 z m 410.69222,-0.1282 c 0,-16.1917 0.7722,-24.6402 2.17297,-23.7745 1.23442,0.7629 2.17298,11.6118 2.17298,25.1174 0,14.401 -0.85673,23.7745 -2.17298,23.7745 -1.32332,0 -2.17297,-9.8211 -2.17297,-25.1174 z m -641.02752,20.1246 c -4.9462,-2.4809 -5.4899,-4.1476 -6.0749,-18.6237 -0.3981,-9.85 0.3232,-17.0627 1.8958,-18.9575 3.0995,-3.7346 17.5365,-4.0427 21.1283,-0.4509 3.5655,3.5655 3.4763,33.1059 -0.1086,35.974 -5.0306,4.0246 -11.3741,4.7998 -16.8406,2.0581 z m 12.8915,-6.7822 c 3.9345,-4.7408 2.0618,-25.2844 -2.5699,-28.1901 -6.7744,-4.25 -11.3231,0.9301 -12.071,13.7464 -0.7027,12.0433 1.8841,17.5268 8.2683,17.5268 2.0976,0 4.9653,-1.3874 6.3726,-3.0831 z m 52.2978,8.0723 c -6.7181,-2.3562 -8.6919,-8.0246 -8.6919,-24.9613 0,-21.8843 3.964,-22.1787 4.7977,-0.3563 0.4967,13.0004 1.4615,17.1319 4.4374,19.0024 2.7656,1.7384 4.8398,1.7384 7.6054,0 2.9814,-1.874 3.9404,-6.0105 4.4401,-19.1521 0.4524,-11.8982 1.3981,-16.5104 3.2594,-15.8951 1.6301,0.5388 2.861,6.6293 3.2535,16.0974 0.5032,12.1377 -0.1588,16.1459 -3.2594,19.7374 -4.3108,4.9931 -10.8553,7.2766 -15.8422,5.5276 z m 57.0405,0.091 c -1.903,-0.7679 -2.7162,-7.2216 -2.7162,-21.5582 v -20.4621 h 10.7097 c 14.6335,0 17.5476,3.3717 17.5057,20.2552 -0.04,15.9917 -1.2296,18.2775 -10.97,21.071 -7.9934,2.2924 -10.2956,2.4024 -14.5292,0.6941 z m 15.5764,-6.3988 c 2.6383,-1.0124 3.4372,-4.5478 3.4372,-15.2108 v -13.8918 h -7.6054 -7.6055 v 15.2108 c 0,13.546 0.4563,15.2108 4.1683,15.2108 2.2925,0 5.7149,-0.5935 7.6054,-1.319 z m -259.6021,2.2738 c -4.0149,-4.8376 -5.01,-24.8232 -1.5623,-31.3764 5.3927,-10.2503 28.795,-6.937 24.6395,3.4885 -1.5596,3.9129 -1.8056,3.8747 -4.964,-0.7723 -3.6521,-5.3732 -9.1782,-6.3267 -13.2233,-2.2816 -3.7572,3.7572 -3.3477,24.4947 0.5475,27.7274 4.4824,3.7201 10.6033,1.9797 13.1142,-3.7288 1.1798,-2.682 2.891,-4.8765 3.8028,-4.8765 2.6481,0 1.914,9.7393 -0.9499,12.6033 -3.7674,3.7673 -18.0618,3.244 -21.4045,-0.7836 z m 60.9526,-17.2521 c 0,-12.3135 0.8768,-20.6432 2.173,-20.6432 1.2782,0 2.173,7.6054 2.173,18.4702 v 18.4703 h 7.6054 c 4.183,0 7.6054,0.9779 7.6054,2.173 0,1.1951 -4.4003,2.173 -9.7784,2.173 h -9.7784 z m 378.0976,0 c 0,-12.3135 0.8768,-20.6432 2.17298,-20.6432 1.29616,0 2.17297,8.3297 2.17297,20.6432 0,12.3135 -0.87681,20.6433 -2.17297,20.6433 -1.29618,0 -2.17298,-8.3298 -2.17298,-20.6433 z m 41.28652,0.1811 c 0,-12.2315 0.88374,-20.8243 2.14169,-20.8243 1.17794,0 5.33375,6.1114 9.23515,13.581 l 7.09344,13.5811 0.64694,-13.5811 c 1.02326,-21.4814 4.7855,-15.9293 4.7855,7.0622 0,12.4615 -0.8706,20.6433 -2.19658,20.6433 -1.20813,0 -4.87502,-5.4883 -8.14866,-12.1961 l -5.95207,-12.1961 -1.08649,11.4841 c -0.60604,6.4059 -2.28759,11.879 -3.8027,12.3772 -2.04615,0.6727 -2.71622,-4.2442 -2.71622,-19.9313 z m 60.84329,-0.1811 v -20.6432 h 11.04596 c 12.46807,0 14.37652,4.9273 2.3678,6.1133 -5.61365,0.5544 -6.89484,1.638 -6.89484,5.8314 0,3.8809 1.35569,5.3199 5.50001,5.838 3.02499,0.3781 5.49999,1.6654 5.49999,2.8605 0,1.1951 -2.475,2.4824 -5.49999,2.8606 -4.83601,0.6045 -5.50001,1.7195 -5.50001,9.2351 0,6.1492 -0.91458,8.5476 -3.25946,8.5476 -2.66856,0 -3.25946,-3.7424 -3.25946,-20.6433 z m 55.24493,17.735 c -0.61381,-1.5996 -0.82758,-10.6446 -0.47505,-20.1 l 0.64097,-17.1918 8.3003,-0.6834 c 4.56517,-0.3759 9.69882,0.4772 11.40812,1.8958 4.3238,3.5884 4.23532,23.4806 -0.11185,25.1487 -2.39093,0.9175 -2.67059,2.2615 -1.08649,5.2214 1.17325,2.1923 2.13318,5.028 2.13318,6.3017 0,4.2323 -3.61301,2.3935 -6.12354,-3.1166 -1.36135,-2.9878 -3.96291,-5.4324 -5.78123,-5.4324 -2.07781,0 -3.30605,2.0182 -3.30605,5.4324 0,5.7523 -3.71658,7.428 -5.59836,2.5242 z m 17.74267,-19.9031 c 1.96186,-7.8167 -0.33835,-11.9562 -6.64368,-11.9562 -4.96876,0 -5.50063,0.8404 -5.50063,8.6919 0,7.8049 0.55014,8.6919 5.39103,8.6919 3.93692,0 5.75848,-1.464 6.75328,-5.4276 z m 40.05877,20.0951 c 0.14254,-7.4897 10.52728,-37.4838 12.97787,-37.4838 2.50764,0 13.04613,30.1806 13.04613,37.3621 0,4.4176 -3.89487,3.3364 -5.43243,-1.508 -0.95655,-3.0138 -3.28779,-4.3459 -7.60541,-4.3459 -4.31763,0 -6.64887,1.3321 -7.60542,4.3459 -1.51353,4.7687 -5.46325,5.965 -5.38074,1.6297 z m 16.4781,-15.9317 c -0.72543,-1.8905 -1.31897,-4.3351 -1.31897,-5.4325 0,-4.3954 -3.90675,-1.6424 -4.87779,3.4372 -0.82321,4.3064 -0.15189,5.4324 3.23863,5.4324 3.00741,0 3.88555,-1.0203 2.95813,-3.4371 z m 185.55684,1.4153 c 0,-16.0249 -0.33072,-17.2813 -4.71898,-17.927 -2.59545,-0.3819 -5.12153,-1.9167 -5.61352,-3.4106 -0.65077,-1.9761 2.75704,-2.7162 12.50548,-2.7162 9.74844,0 13.15625,0.7401 12.50548,2.7162 -0.49199,1.4939 -3.01807,3.0287 -5.61352,3.4106 -4.38826,0.6457 -4.71899,1.9021 -4.71899,17.927 0,10.0398 -0.90699,17.2327 -2.17297,17.2327 -1.26598,0 -2.17298,-7.1929 -2.17298,-17.2327 z m 48.72601,14.3244 c -0.61381,-1.5996 -0.82758,-10.6446 -0.47504,-20.1 l 0.64097,-17.1918 10.54544,-0.6714 c 7.93083,-0.505 10.31377,0.034 9.61104,2.173 -0.51392,1.5644 -4.03707,3.1508 -7.82922,3.5253 -5.67172,0.5601 -6.89483,1.6202 -6.89483,5.9757 0,4.4662 1.04844,5.2947 6.70001,5.2947 8.31372,0 7.56777,5.1186 -0.8919,6.1201 -4.81932,0.5705 -5.80811,1.7728 -5.80811,7.0621 0,5.8366 0.64187,6.3746 7.60541,6.3746 4.18298,0 7.60541,0.9779 7.60541,2.173 0,3.3736 -19.49677,2.6847 -20.80918,-0.7353 z m 57.82621,-1.2948 c -3.60809,-6.7418 -2.81389,-29.6896 1.16524,-33.6688 6.47104,-6.471 24.834,-2.5489 24.834,5.3042 0,3.9882 -3.72464,3.9166 -7.19653,-0.1383 -3.88795,-4.5408 -7.4087,-5.2413 -11.92965,-2.3737 -1.96449,1.246 -2.62846,6.0496 -2.17298,15.7208 0.63061,13.3894 0.88628,13.9529 6.63053,14.6139 4.81318,0.5538 6.41294,-0.4654 8.2294,-5.243 1.68281,-4.4262 2.8808,-5.3045 4.72265,-3.4627 1.84186,1.8419 1.83319,3.8609 -0.0342,7.9593 -2.13479,4.6853 -3.93293,5.4914 -12.25056,5.4914 -7.41413,0 -10.28717,-1.0065 -11.99794,-4.2031 z m 61.22853,-15.7212 c 0.42466,-13.5421 1.49484,-20.2125 3.34101,-20.8243 1.87646,-0.6218 2.71622,1.8431 2.71622,7.9729 0,8.6919 0.15521,8.8729 7.60541,8.8729 7.42433,0 7.60541,-0.2069 7.60541,-8.6919 0,-4.7805 0.97784,-8.6918 2.17297,-8.6918 1.29616,0 2.17298,8.3297 2.17298,20.6432 0,12.3135 -0.87682,20.6433 -2.17298,20.6433 -1.19513,0 -2.17297,-3.9114 -2.17297,-8.6919 0,-8.485 -0.18108,-8.6919 -7.60541,-8.6919 -7.42433,0 -7.60541,0.2069 -7.60541,8.6919 0,6.3717 -0.89182,8.6919 -3.34101,8.6919 -2.80853,0 -3.24143,-3.1755 -2.71622,-19.9243 z m -1568.15117,4.9374 c -13.4307,-9.1264 -17.6381,-26.323 -10.0698,-41.158 5.8127,-11.3939 16.0271,-16.4727 30.36,-15.0954 26.787,2.5738 37.2974,33.9229 17.6759,52.7214 -8.7978,8.4288 -28.1151,10.2259 -37.9661,3.532 z m 358.0499,-12.0865 c -10.4417,-4.5419 -14.4894,-12.2214 -13.2486,-25.1354 1.1922,-12.407 5.5299,-18.2827 16.0635,-21.7591 15.1694,-5.0063 30.9481,5.6863 32.7955,22.2244 1.2444,11.1402 -4.4782,20.0433 -15.9695,24.8446 -8.7595,3.66 -10.8687,3.6412 -19.6409,-0.1745 z m -288.2642,-6.9699 c -2.7527,-2.7527 -1.4362,-8.956 2.1966,-10.3501 4.6159,-1.7713 10.4151,3.8269 8.6715,8.3708 -1.3207,3.4417 -8.1601,4.6873 -10.8681,1.9793 z m 343.3299,0 c -2.7527,-2.7527 -1.4361,-8.956 2.1966,-10.3501 4.6159,-1.7713 10.4151,3.8269 8.6715,8.3708 -1.3207,3.4417 -8.1601,4.6873 -10.8681,1.9793 z m -392.6437,-63.0977 c -11.7525,-8.1 -15.2768,-19.1837 -10.0658,-31.6555 7.9507,-19.0287 36.7979,-19.5377 45.6866,-0.8061 4.4504,9.3785 4.4504,12.9723 0,22.3509 -6.1316,12.9213 -24.1304,18.0302 -35.6208,10.1107 z m 350.4946,-1.6916 c -11.0075,-4.7853 -16.1938,-14.9703 -15.2346,-29.9184 0.6545,-10.1995 1.9557,-13.7012 7.0785,-19.0482 19.9664,-20.840469 53.2025,-7.1528 53.2025,21.9105 0,22.784 -23.0404,36.6227 -45.0464,27.0561 z m 155.8681,-57.6216 V 52.636211 h 14.1244 14.1243 v 54.324399 54.3243 h -14.1243 -14.1244 z m 31.8703,52.8757 c -0.7967,-0.7968 -1.4486,-6.1749 -1.4486,-11.9514 v -10.5031 h 18.4703 18.4703 v -8.604 -8.604 l -17.9271,-0.6312 -17.927,-0.6311 v -11.9513 -11.951399 l 17.927,-0.63112 17.9271,-0.63113 v -8.60401 -8.60402 h -18.4703 -18.4703 v -11.95136 -11.95136 h 25.6347 25.6347 l 8.0464,8.24027 c 7.4406,7.61983 8.0464,9.20609 8.0464,21.0676 0,10.95993 -0.85,13.71457 -5.839,18.921909 l -5.839,6.09462 5.839,6.0945 c 5.009,5.2283 5.839,7.9455 5.839,19.1158 0,12.2092 -0.5138,13.5229 -8.2403,21.0676 l -8.2403,8.0464 h -23.9921 c -13.1957,0 -24.6441,-0.6519 -25.4409,-1.4486 z m 98.5082,-52.8757 V 52.636211 h 15.2108 15.2109 v 54.324399 54.3243 h -15.2109 -15.2108 z m 60.9685,35.854 c -11.1084,-18.1141 -11.4912,-18.4702 -19.8504,-18.4702 h -8.5235 v -11.9514 -11.95136 h 18.4703 18.4703 V 88.490291 76.538931 h -18.4703 -18.4703 v -11.95136 -11.95136 h 25.8229 25.8228 l 7.8583,8.69816 c 7.6845,8.50582 7.8582,9.0926 7.8582,26.53668 v 17.838559 l -8.6492,8.8129 -8.6493,8.813 8.6424,12.999 c 4.8147,7.2419 8.6454,15.6456 8.6492,18.9747 0.01,5.8938 -0.1827,5.9757 -13.8238,5.9757 h -13.8308 z m 71.583,-27.7083 V 68.729031 l 8.2402,-8.04641 c 6.056,-5.91346 10.0981,-8.04641 15.2488,-8.04641 h 7.0085 l -0.5812,53.781099 -0.5812,53.7811 -14.6676,0.6426 -14.6675,0.6425 z m 67.3622,30.9678 v -15.2108 h -17.3838 -17.3838 v -11.9514 -11.9513 h 17.3838 17.3838 V 91.749751 76.538931 h -17.3838 -17.3838 v -11.95136 -11.95136 h 23.4617 23.4617 l 8.0464,8.24027 8.0464,8.24027 v 46.084059 46.0841 h -14.1243 -14.1243 z m 63.0162,-31.9427 c 0,-25.934469 0.8199,-46.224619 1.8219,-45.089239 1.0021,1.13538 7.358,10.03592 14.1244,19.77898 l 12.3024,17.714659 v 27.3746 27.3745 h -14.1243 -14.1244 z m 35.906,-2.2816 c -18.9429,-27.189389 -34.8851,-51.635349 -35.4271,-54.324409 -0.9352,-4.63959 -0.3152,-4.88919 12.1453,-4.88919 h 13.1307 l 20.2604,29.08763 20.26046,29.087669 0.60457,-29.087669 0.60456,-29.08763 h 14.06302 14.06301 v 54.324399 54.3243 h -12.6316 -12.63161 z m 94.47251,-4.8892 V 52.636211 h 14.12434 14.12433 v 54.324399 54.3243 h -14.12433 -14.12434 z m 32.59462,42.373 v -11.9518 h 16.29732 16.29731 v -30.4216 -30.421679 h -16.29731 -16.29732 v -11.95136 -11.95136 h 23.46173 23.46172 l 8.04641,8.24027 8.04641,8.24027 v 38.037659 38.0377 l -8.24028,8.0464 -8.24026,8.0464 h -23.26786 -23.26787 z m 104.69392,4.1766 -9.08303,-7.7748 v -37.8518 -37.851489 l 7.85826,-8.69815 c 6.22185,-6.88684 9.38937,-8.69816 15.21082,-8.69816 h 7.35256 v 54.324399 54.3243 h -6.12779 c -3.88754,0 -9.44845,-2.8423 -15.21082,-7.7747 z m 23.51159,-4.1766 v -11.9518 h 17.38379 17.3838 v -30.4216 -30.421679 h -17.3838 -17.38379 v -11.95136 -11.95136 h 24.54821 24.5482 l 8.04642,8.24027 8.04641,8.24027 v 38.037659 38.0377 l -8.24028,8.0464 -8.24027,8.0464 h -24.35434 -24.35435 z m 97.78385,-34.7676 c 0,-25.695449 0.41599,-46.718979 0.92442,-46.718979 0.50842,0 7.35329,9.22092 15.21082,20.49094 l 14.28641,20.490539 v 26.228 26.228 h -15.21082 -15.21083 z m 35.85408,-3.6071 c -19.12217,-27.607769 -35.08642,-52.073039 -35.47611,-54.367289 -0.64566,-3.80122 0.50545,-4.11358 12.97232,-3.52015 l 13.68086,0.65123 19.62229,28.01972 19.62229,28.019689 0.60631,-28.562929 0.60632,-28.56297 h 14.06126 14.06126 v 54.324399 54.3243 l -12.4946,-0.065 -12.4946,-0.065 z m 169.93302,42.0857 -8.04641,-8.2402 V 98.720301 52.636211 h 14.12434 14.12433 v 54.324399 54.3243 h -6.07792 c -4.17217,0 -8.6009,-2.5837 -14.12434,-8.2403 z m 24.54821,-3.711 v -11.9518 h 27.16218 27.16219 v 11.9514 11.9513 h -27.16219 -27.16218 z m 90.71482,3.8087 -8.14178,-8.3379 V 98.720301 52.636211 h 15.24878 15.24878 l -0.5812,53.781099 -0.58121,53.7811 -6.52579,0.641 c -5.15542,0.5063 -8.23551,-1.11 -14.66758,-7.6971 z m 24.45284,-3.8087 v -11.9518 h 30.42164 30.42165 v 11.9514 11.9513 h -30.42165 -30.42164 z m 102.49136,3.5932 -9.05346,-8.3581 V 98.602471 52.636211 h 15.21083 15.21082 v 54.324399 54.3243 h -6.15736 c -4.12479,0 -9.14596,-2.759 -15.21083,-8.3581 z m 23.54116,-3.5932 v -11.9518 h 30.42165 30.42164 v 11.9514 11.9513 h -30.42164 -30.42165 z m -1802.32968,-13.4241 c -1.8073,-4.7096 3.4438,-9.9607 8.1534,-8.1534 2.0065,0.7699 3.6453,3.7365 3.6453,6.5987 0,4.036 -1.164,5.2 -5.2,5.2 -2.8622,0 -5.8288,-1.6388 -6.5987,-3.6453 z m 343.3722,0.1104 c -1.3511,-3.5209 2.0156,-9.503 5.3483,-9.503 3.4762,0 8.3691,6.716 7.1697,9.8413 -1.6567,4.3174 -10.8265,4.0696 -12.518,-0.3383 z m 1332.92496,-29.0597 V 93.922331 h 26.07569 26.0757 v 13.037879 13.0378 h -26.0757 -26.07569 z m 126.91372,10.0269 c -0.63545,-1.6559 -0.84922,-7.2785 -0.47504,-12.49456 l 0.68033,-9.483739 25.53245,-0.6122 25.53245,-0.6122 v 13.106799 13.1068 h -25.0574 c -19.34919,0 -25.32061,-0.6859 -26.21279,-3.0109 z m -1791.95548,-10.1566 c -4.3659,-2.5939 -5.036,-10.805679 -1.1951,-14.646559 1.4342,-1.43417 5.3269,-2.60757 8.6505,-2.60757 4.7275,0 6.3581,1.25574 7.4908,5.76876 2.5781,10.271869 -5.9537,16.828069 -14.9462,11.485369 z m 73.631,-2.20103 c -4.449,-3.49955 -5.7255,-6.406389 -5.7255,-13.037839 0,-10.8589 5.9349,-17.22609 16.0566,-17.22609 9.2851,0 16.1354,5.58864 17.8722,14.58052 1.1275,5.8375 0.2698,8.05252 -5.2588,13.581099 -7.756,7.75604 -14.9223,8.41264 -22.9445,2.10231 z m 247.9692,2.15663 c -7.7351,-4.50524 -3.3237,-17.209729 5.9757,-17.209729 9.5452,0 13.7169,12.950059 5.5752,17.307329 -5.1354,2.7484 -6.6872,2.7353 -11.5509,-0.098 z m 46.883,-22.553369 c -10.4417,-4.54189 -14.4894,-12.22136 -13.2486,-25.13536 1.1922,-12.407 5.5299,-18.28269 16.0635,-21.75911 15.1694,-5.00636 30.9481,5.68631 32.7955,22.22441 1.2444,11.1402 -4.4782,20.04323 -15.9695,24.84458 -8.7595,3.65997 -10.8687,3.64123 -19.6409,-0.17452 z m 1296.55856,-19.64557 v -11.95136 h 30.42164 30.42165 v 11.95136 11.95136 h -30.42165 -30.42164 z m 126.03252,0 v -11.95136 h 30.42165 30.42164 v 11.95136 11.95136 h -30.42164 -30.42165 z m -1761.19588,5.14874 c -16.7932,-9.38817 -11.0247,-32.31092 8.131,-32.31092 8.902,0 16.8582,7.77263 16.8582,16.46918 0,11.05127 -15.7257,21.02047 -24.9892,15.84174 z m 93.9812,0.15405 c -4.366,-2.59392 -5.036,-10.8057 -1.1952,-14.64658 1.4342,-1.43417 5.3269,-2.60757 8.6505,-2.60757 4.7275,0 6.3581,1.25574 7.4908,5.76876 2.5781,10.27184 -5.9536,16.82806 -14.9461,11.48539 z m 167.6329,-0.11894 c -5.7802,-2.12072 -10.6356,-9.85621 -10.6356,-16.94441 0,-2.17286 2.0266,-6.52713 4.5037,-9.67614 9.6276,-12.23962 30.2639,-4.56502 30.2639,11.25512 0,6.57461 -6.1871,15.61401 -10.6872,15.61401 -1.0973,0 -3.2975,0.41145 -4.8892,0.91433 -1.5916,0.50288 -5.4417,-0.0204 -8.5556,-1.16291 z m -132.3221,-17.98921 c 0,-6.20006 6.0896,-9.19852 10.244,-5.04408 4.1545,4.15445 1.156,10.24403 -5.044,10.24403 -4.036,0 -5.2,-1.16398 -5.2,-5.19995 z m -78.2271,-15.90131 c -4.6607,-2.38261 -9.2139,-7.18294 -11.7598,-12.39814 -3.7698,-7.72243 -3.8704,-9.31336 -1.0865,-17.1869398 8.4475,-23.8913002 39.0409,-23.7163602 47.516,0.2717 2.8347,8.0234898 2.7874,9.7329198 -0.4574,16.5373498 -6.6307,13.90478 -21.2933,19.3803 -34.2123,12.77603 z m 152.1082,-0.0886 c -20.6287,-10.30515 -18.0749,-39.7116398 4.0237,-46.33253 16.8494,-5.0482 34.2548,9.55050024 32.1286,26.94779 -1.1883,9.72358 -6.2275,16.10242 -15.9825,20.23126 -9.0127,3.81464 -11.0068,3.73095 -20.1698,-0.84652 z m -81.9117,-13.4821 c -10.0797,-6.14603 -14.5349,-14.1678698 -14.5349,-26.1713098 0,-31.5286302 40.7181,-41.9575302 57.3449,-14.6874402 8.1062,13.2952302 3.4799,33.02555 -9.6163,41.01155 -8.8406,5.39105 -24.2176,5.32026 -33.1937,-0.1528 z m 176.7291,-2.42631 c -12.1938,-9.59167 -4.3605,-30.26392 11.4679,-30.26392 12.4398,0 20.258,12.1774902 15.3796,23.95491 -4.4356,10.7086 -17.3856,13.75177 -26.8475,6.30901 z m -42.2315,-37.21744 c -1.4341,-1.43417 -2.6075,-4.66103 -2.6075,-7.17082 0,-2.50978 1.1734,-5.73665 2.6075,-7.17082 1.4342,-1.43416 4.6611,-2.60756 7.1709,-2.60756 2.5097,0 5.7366,1.1734 7.1708,2.60756 1.4341,1.43417 2.6075,4.66104 2.6075,7.17082 0,2.50979 -1.1734,5.73665 -2.6075,7.17082 -1.4342,1.43416 -4.6611,2.60757 -7.1708,2.60757 -2.5098,0 -5.7367,-1.17341 -7.1709,-2.60757 z m -31.5805,-14.05191 c -2.7527,-2.7527 -1.4362,-8.95604 2.1966,-10.35007 4.6159,-1.77128 10.4151,3.82685 8.6714,8.37077 -1.3207,3.44171 -8.16,4.68731 -10.868,1.9793 z"
         id="path1" /><g
         id="g247"
         style="fill:#6cb2ee;fill-opacity:1"
         transform="translate(-1007.4428,-1461.2824)"><path
           style="fill:#6cb2ee;fill-opacity:1"
           d="m -733.43201,1430.1409 c -2.7527,-2.7527 -1.4362,-8.9561 2.1966,-10.3501 4.6159,-1.7713 10.4151,3.8268 8.6714,8.3708 -1.3207,3.4417 -8.16,4.6873 -10.868,1.9793 z"
           id="path247" /><path
           style="fill:#6cb2ee;fill-opacity:1"
           d="m -701.85151,1444.1928 c -1.4341,-1.4342 -2.6075,-4.6611 -2.6075,-7.1709 0,-2.5097 1.1734,-5.7366 2.6075,-7.1708 1.4342,-1.4341 4.6611,-2.6075 7.1709,-2.6075 2.5097,0 5.7366,1.1734 7.1708,2.6075 1.4341,1.4342 2.6075,4.6611 2.6075,7.1708 0,2.5098 -1.1734,5.7367 -2.6075,7.1709 -1.4342,1.4341 -4.6611,2.6075 -7.1708,2.6075 -2.5098,0 -5.7367,-1.1734 -7.1709,-2.6075 z"
           id="path246" /><path
           style="fill:#6cb2ee;fill-opacity:1"
           d="m -659.62001,1481.4102 c -12.1938,-9.5917 -4.3605,-30.2639 11.4679,-30.2639 12.43973,0 20.25798,12.1775 15.37961,23.9549 -4.43564,10.7086 -17.38561,13.7518 -26.84751,6.309 z"
           id="path245" /><path
           style="fill:#6cb2ee;fill-opacity:1"
           d="m -836.34923,1483.8365 c -10.0797,-6.146 -14.5349,-14.1679 -14.5349,-26.1713 0,-31.5286 40.7181,-41.9575 57.3449,-14.6874 8.1062,13.2952 3.4799,33.0255 -9.6163,41.0115 -8.8406,5.3911 -24.2176,5.3203 -33.1937,-0.1528 z"
           id="path244" /><path
           style="fill:#6cb2ee;fill-opacity:1"
           d="m -754.43743,1497.3186 c -20.6287,-10.3051 -18.0749,-39.7116 4.0237,-46.3325 16.84942,-5.0482 34.25482,9.5505 32.12862,26.9478 -1.1883,9.7236 -6.2275,16.1024 -15.9825,20.2312 -9.0127,3.8147 -11.00682,3.731 -20.16982,-0.8465 z"
           id="path243" /><path
           style="fill:#6cb2ee;fill-opacity:1"
           d="m -906.54573,1497.4076 c -4.6607,-2.3826 -9.2139,-7.1829 -11.7598,-12.3981 -3.7698,-7.7225 -3.8704,-9.3134 -1.0865,-17.187 8.4475,-23.8913 39.0409,-23.7163 47.516,0.2717 2.8347,8.0235 2.7874,9.733 -0.4574,16.5374 -6.6307,13.9048 -21.2933,19.3803 -34.2123,12.776 z"
           id="path242" /><path
           style="fill:#6cb2ee;fill-opacity:1"
           d="m -828.31863,1513.3089 c 0,-6.2 6.0896,-9.1985 10.244,-5.0441 4.1545,4.1545 1.156,10.2441 -5.044,10.2441 -4.036,0 -5.2,-1.164 -5.2,-5.2 z"
           id="path241" /><path
           style="fill:#6cb2ee;fill-opacity:1"
           d="m -695.99641,1531.2981 c -5.7802,-2.1207 -10.6356,-9.8562 -10.6356,-16.9444 0,-2.1728 2.0266,-6.5271 4.5037,-9.6761 9.6276,-12.2396 30.2639,-4.565 30.2639,11.2551 0,6.5746 -6.1871,15.614 -10.6872,15.614 -1.0973,0 -3.2975,0.4115 -4.8892,0.9143 -1.5916,0.5029 -5.4417,-0.02 -8.5556,-1.1629 z"
           id="path240" /><path
           style="fill:#6cb2ee;fill-opacity:1"
           d="m -863.62943,1531.4171 c -4.366,-2.5939 -5.036,-10.8057 -1.1952,-14.6466 1.4342,-1.4342 5.3269,-2.6076 8.6505,-2.6076 4.7275,0 6.3581,1.2558 7.4908,5.7688 2.5781,10.2718 -5.9536,16.828 -14.9461,11.4854 z"
           id="path239" /><path
           style="fill:#6cb2ee;fill-opacity:1"
           d="m -957.61063,1531.263 c -16.7932,-9.3881 -11.0247,-32.3109 8.131,-32.3109 8.902,0 16.8582,7.7726 16.8582,16.4692 0,11.0513 -15.7257,21.0205 -24.9892,15.8417 z"
           id="path238" /><path
           style="fill:#6cb2ee;fill-opacity:1"
           d="m -619.00577,1545.7599 c -10.44166,-4.5419 -14.48942,-12.2214 -13.24855,-25.1354 1.19216,-12.407 5.52984,-18.2827 16.06351,-21.7591 15.16941,-5.0064 30.94805,5.6863 32.79545,22.2244 1.24443,11.1402 -4.47821,20.0432 -15.96946,24.8446 -8.75955,3.6599 -10.86868,3.6412 -19.64095,-0.1745 z"
           id="path235" /><path
           style="fill:#6cb2ee;fill-opacity:1"
           d="m -665.88871,1568.3132 c -7.7351,-4.5052 -3.3237,-17.2097 5.9757,-17.2097 9.5452,0 13.7169,12.9501 5.5752,17.3073 -5.1354,2.7484 -6.6872,2.7353 -11.5509,-0.098 z"
           id="path234" /><path
           style="fill:#6cb2ee;fill-opacity:1"
           d="m -913.85803,1566.1566 c -4.449,-3.4996 -5.7255,-6.4064 -5.7255,-13.0378 0,-10.8589 5.9349,-17.2261 16.0566,-17.2261 9.2851,0 16.1354,5.5886 17.8722,14.5805 1.1275,5.8375 0.2698,8.0525 -5.2588,13.5811 -7.756,7.756 -14.9223,8.4126 -22.9445,2.1023 z"
           id="path233" /><path
           style="fill:#6cb2ee;fill-opacity:1"
           d="m -987.48903,1568.3576 c -4.3659,-2.5939 -5.036,-10.8057 -1.1951,-14.6465 1.4342,-1.4342 5.3269,-2.6076 8.6505,-2.6076 4.7275,0 6.3581,1.2557 7.4908,5.7688 2.5781,10.2718 -5.9537,16.828 -14.9462,11.4853 z"
           id="path232" /><path
           style="fill:#6cb2ee;fill-opacity:1"
           d="m -655.37211,1597.547 c -1.3511,-3.5209 2.0156,-9.503 5.3483,-9.503 3.4762,0 8.36903,6.716 7.1697,9.8413 -1.6567,4.3174 -10.8265,4.0696 -12.518,-0.3383 z"
           id="path229" /><path
           style="fill:#6cb2ee;fill-opacity:1"
           d="m -998.74443,1597.4366 c -1.80727,-4.7096 3.4438,-9.9607 8.1534,-8.1534 2.0065,0.7699 3.6453,3.7365 3.6453,6.5987 0,4.036 -1.164,5.2 -5.2,5.2 -2.8622,0 -5.8288,-1.6388 -6.5987,-3.6453 z"
           id="path228" /><path
           style="fill:#6cb2ee;fill-opacity:1"
           d="m -606.08914,1626.1093 c -11.00755,-4.7853 -16.1938,-14.9703 -15.23462,-29.9184 0.65447,-10.1995 1.95573,-13.7012 7.07849,-19.0482 19.96644,-20.8404 53.20256,-7.1528 53.20256,21.9105 0,22.784 -23.04048,36.6227 -45.04643,27.0561 z"
           id="path207" /><path
           style="fill:#6cb2ee;fill-opacity:1"
           d="m -956.58383,1627.8009 c -11.7525,-8.1 -15.2768,-19.1837 -10.0658,-31.6555 7.9507,-19.0287 36.7979,-19.5377 45.6866,-0.8061 4.4504,9.3785 4.4504,12.9723 0,22.3509 -6.1316,12.9213 -24.1304,18.0302 -35.6208,10.1107 z"
           id="path206" /><path
           style="fill:#6cb2ee;fill-opacity:1"
           d="m -563.94001,1690.8986 c -2.7527,-2.7527 -1.43616,-8.956 2.1966,-10.3501 4.61589,-1.7713 10.41511,3.8269 8.67145,8.3708 -1.32071,3.4417 -8.16005,4.6873 -10.86805,1.9793 z"
           id="path205" /><path
           style="fill:#6cb2ee;fill-opacity:1"
           d="m -907.27003,1690.8986 c -2.7527,-2.7527 -1.4362,-8.956 2.1966,-10.3501 4.6159,-1.7713 10.4151,3.8269 8.6715,8.3708 -1.3207,3.4417 -8.1601,4.6873 -10.8681,1.9793 z"
           id="path204" /><path
           style="fill:#6cb2ee;fill-opacity:1"
           d="m -619.00577,1697.8685 c -10.44166,-4.5419 -14.48942,-12.2214 -13.24855,-25.1354 1.19216,-12.407 5.52984,-18.2827 16.06351,-21.7591 15.16941,-5.0063 30.94805,5.6863 32.79545,22.2244 1.24443,11.1402 -4.47821,20.0433 -15.96946,24.8446 -8.75955,3.66 -10.86868,3.6412 -19.64095,-0.1745 z"
           id="path203" /><path
           style="fill:#6cb2ee;fill-opacity:1"
           d="m -977.05573,1709.955 c -13.4307,-9.1264 -17.6381,-26.323 -10.0698,-41.158 5.8127,-11.3939 16.0271,-16.4727 30.36,-15.0954 26.787,2.5738 37.2974,33.9229 17.6759,52.7214 -8.7978,8.4288 -28.1151,10.2259 -37.9661,3.532 z"
           id="path202" /><path
           style="fill:#6cb2ee;fill-opacity:1"
           d="m -577.99191,1728.8528 c -1.43417,-1.4342 -2.60757,-4.661 -2.60757,-7.1708 0,-2.5098 1.1734,-5.7366 2.60757,-7.1708 1.43416,-1.4342 4.66103,-2.6076 7.17081,-2.6076 2.50979,0 5.73666,1.1734 7.17082,2.6076 1.43416,1.4342 2.60757,4.661 2.60757,7.1708 0,2.5098 -1.17341,5.7366 -2.60757,7.1708 -1.43416,1.4341 -4.66103,2.6075 -7.17082,2.6075 -2.50978,0 -5.73665,-1.1734 -7.17081,-2.6075 z"
           id="path181" /><path
           style="fill:#6cb2ee;fill-opacity:1"
           d="m -900.00103,1727.1625 c -5.938,-11.0951 7.7273,-20.6625 15.6095,-10.9284 3.538,4.3692 3.6637,5.5516 1.0166,9.5627 -4.2313,6.4119 -13.5172,7.1747 -16.6261,1.3657 z"
           id="path180" /><path
           style="fill:#6cb2ee;fill-opacity:1"
           d="m -659.62001,1742.1675 c -4.4163,-3.4738 -5.7255,-6.4191 -5.7255,-12.8801 0,-18.6435 25.44615,-23.7769 32.57301,-6.5711 7.1636,17.2944 -11.96801,31.1554 -26.84751,19.4512 z"
           id="path179" /><path
           style="fill:#6cb2ee;fill-opacity:1"
           d="m -701.85151,1765.7933 c -1.4341,-1.4341 -2.6075,-4.661 -2.6075,-7.1708 0,-2.5098 1.1734,-5.7366 2.6075,-7.1708 1.4342,-1.4342 4.6611,-2.6076 7.1709,-2.6076 2.5097,0 5.7366,1.1734 7.1708,2.6076 1.4341,1.4342 2.6075,4.661 2.6075,7.1708 0,2.5098 -1.1734,5.7367 -2.6075,7.1708 -1.4342,1.4342 -4.6611,2.6076 -7.1708,2.6076 -2.5098,0 -5.7367,-1.1734 -7.1709,-2.6076 z"
           id="path178" /><path
           style="fill:#6cb2ee;fill-opacity:1"
           d="m -734.15951,1771.4919 c -0.7235,-1.8854 0.285,-5.0284 2.2411,-6.9846 3.2935,-3.2935 3.8198,-3.2935 7.1133,0 4.4426,4.4426 2.4034,10.4125 -3.5566,10.4125 -2.4653,0 -5.0743,-1.5425 -5.7978,-3.4279 z"
           id="path177" /><path
           style="fill:#6cb2ee;fill-opacity:1"
           d="m -611.59445,1780.8955 c -9.32826,-7.0836 -8.857,-21.7248 0.91967,-28.5726 13.72733,-9.615 31.03529,4.2693 25.41609,20.3885 -1.27426,3.6554 -4.10538,7.6033 -6.29137,8.7732 -5.52694,2.958 -15.76979,2.6569 -20.04439,-0.5891 z"
           id="path176" /><path
           style="fill:#6cb2ee;fill-opacity:1"
           d="m -873.21933,1780.403 c -9.6877,-6.7856 -8.028,-24.181 2.7768,-29.104 7.801,-3.5544 12.5406,-3.0437 19.0146,2.0488 11.9987,9.4382 4.5864,30.2639 -10.7716,30.2639 -3.5412,0 -8.5001,-1.4439 -11.0198,-3.2087 z"
           id="path175" /><path
           style="fill:#6cb2ee;fill-opacity:1"
           d="m -956.52413,1780.8463 c -7.5839,-3.7712 -13.8347,-17.2949 -12.1484,-26.2836 0.7357,-3.9217 4.3232,-9.9906 7.9722,-13.4866 5.4716,-5.2421 8.4833,-6.3563 17.1817,-6.3563 12.2594,0 20.1045,5.7771 24.0405,17.7033 6.8166,20.6546 -16.5759,38.6022 -37.046,28.4232 z"
           id="path174" /><path
           style="fill:#6cb2ee;fill-opacity:1"
           d="m -668.60491,1828.895 c -8.247,-4.5352 -11.853,-11.2277 -11.9031,-22.0909 -0.04,-8.6886 1.0228,-11.5599 6.1922,-16.7293 7.9112,-7.9112 15.7874,-9.8857 26.5598,-6.6582 11.02172,3.3022 16.09162,11.0918 16.09162,24.7238 0,9.2213 -0.92034,11.4177 -7.09645,16.9361 -5.51617,4.9287 -9.14537,6.326 -16.29727,6.2746 -5.0605,-0.036 -11.1566,-1.1416 -13.5468,-2.4561 z"
           id="path173" /><path
           style="fill:#6cb2ee;fill-opacity:1"
           d="m -821.27513,1828.5375 c -7.5515,-4.1938 -11.6505,-11.5113 -11.7819,-21.0326 -0.3132,-22.6912 26.4819,-34.1516 42.4692,-18.1644 10.656,10.6561 9.5,28.3936 -2.4639,37.8044 -6.2488,4.9153 -20.6049,5.6237 -28.2234,1.3926 z"
           id="path172" /><path
           style="fill:#6cb2ee;fill-opacity:1"
           d="m -914.85883,1826.3879 c -10.1101,-10.7617 -2.8916,-29.7383 11.3123,-29.7383 8.4967,0 13.376,3.1838 16.5232,10.7818 7.2469,17.4956 -14.9846,32.6357 -27.8355,18.9565 z"
           id="path171" /><path
           style="fill:#6cb2ee;fill-opacity:1"
           d="m -745.09203,1850.7997 c -22.8948,-11.3328 -22.6096,-44.1566 0.479,-55.1128 15.28172,-7.2517 32.90392,-1.1219 40.69382,14.155 7.9586,15.6077 2.308,32.4031 -13.6556,40.5888 -11.7815,6.0413 -15.9452,6.0971 -27.51722,0.369 z"
           id="path170" /><path
           style="fill:#6cb2ee;fill-opacity:1"
           d="m -863.62943,1852.9729 c -4.3652,-2.5425 -5.0377,-10.7596 -1.1952,-14.6022 6.0952,-6.0952 16.9492,-1.5031 16.9492,7.1708 0,8.592 -7.6035,12.1786 -15.754,7.4314 z"
           id="path169" /><path
           style="fill:#6cb2ee;fill-opacity:1"
           d="m -829.25243,1858.1936 c -1.8073,-4.7096 3.4438,-9.9607 8.1534,-8.1535 2.0065,0.77 3.6453,3.7365 3.6453,6.5988 0,4.0359 -1.164,5.1999 -5.2,5.1999 -2.8622,0 -5.8288,-1.6388 -6.5987,-3.6452 z"
           id="path1-3" /></g></g></g></svg>
